<svg width="500" height="500" viewBox="0 0 500 500" fill="none" xmlns="http://www.w3.org/2000/svg">
<g clip-path="url(#clip0_10_3)">
<path d="M250 0C388.071 0 500 111.929 500 250C500 290.567 490.336 328.877 473.187 362.755L435.281 130H383.131L343.231 375H378.932L385.932 327.05H429.682V326.35L436.682 375H466.553C423.326 449.725 342.535 500 250 500C111.929 500 0 388.071 0 250C0 111.929 111.929 0 250 0ZM34.8398 130V375H73.3398V270H86.6406C95.5071 270 101.69 272.217 105.19 276.65C108.924 281.084 110.79 288.9 110.79 300.1V344.9C110.79 354 111.024 360.3 111.49 363.8C111.957 367.3 112.89 371.033 114.29 375H256.502V340H190.002V264.75H242.853V229.75H190.002V165H249.301L281.101 375H332.201L369.301 130H333.951L308.751 320.05H308.051L282.851 130H151.502V369.68C150.765 367.253 150.26 364.827 149.99 362.4C149.524 357.967 149.29 352.25 149.29 345.25V302.2C149.29 287.734 147.307 276.183 143.34 267.55C139.607 258.917 133.073 253.2 123.74 250.4V249.7C140.54 242.934 148.94 226.833 148.94 201.4V186.35C148.94 167.216 144.39 153.1 135.29 144C126.19 134.667 111.724 130 91.8906 130H34.8398ZM407.981 172.7L425.131 293.8H390.481L407.281 172.7H407.981ZM90.8398 165C97.6065 165 102.507 166.984 105.54 170.95C108.807 174.917 110.44 181.334 110.44 190.2V209.1C110.44 218.433 108.457 225.083 104.49 229.05C100.757 233.016 95.0398 235 87.3398 235H73.3398V165H90.8398Z" fill="url(#paint0_linear_10_3)"/>
</g>
<defs>
<linearGradient id="paint0_linear_10_3" x1="250" y1="0" x2="250" y2="500" gradientUnits="userSpaceOnUse">
<stop stop-color="#465BFF"/>
<stop offset="1" stop-color="#CF60FE"/>
</linearGradient>
<clipPath id="clip0_10_3">
<rect width="500" height="500" fill="white"/>
</clipPath>
</defs>
</svg>
